<?xml version="1.0" encoding="UTF-8" standalone="no"?>
<svg
   width="64.539162"
   height="16.050741"
   viewBox="0 0 64.539162 16.050741"
   version="1.1"
   id="svg4"
   sodipodi:docname="label.svg"
   inkscape:version="1.1 (c4e8f9e, 2021-05-24)"
   xmlns:inkscape="http://www.inkscape.org/namespaces/inkscape"
   xmlns:sodipodi="http://sodipodi.sourceforge.net/DTD/sodipodi-0.dtd"
   xmlns="http://www.w3.org/2000/svg"
   xmlns:svg="http://www.w3.org/2000/svg">
  <defs
     id="defs8" />
  <sodipodi:namedview
     id="namedview6"
     pagecolor="#ffffff"
     bordercolor="#666666"
     borderopacity="1.0"
     inkscape:pageshadow="2"
     inkscape:pageopacity="0.0"
     inkscape:pagecheckerboard="0"
     showgrid="false"
     inkscape:zoom="16.29"
     inkscape:cx="22.989564"
     inkscape:cy="6.0159607"
     inkscape:window-width="1366"
     inkscape:window-height="707"
     inkscape:window-x="0"
     inkscape:window-y="27"
     inkscape:window-maximized="1"
     inkscape:current-layer="svg4" />
  <path
     d="M 59.352379,0.41900021 C 59.165206,0.15593581 58.862236,-2.0779245e-4 58.539379,2.075468e-7 L 1.0018591,0.05074131 c -0.81282487,7.342e-4 -1.28525187,0.9194384 -0.81299987,1.58099999 l 4.58399987,6.4189997 -4.58499987,6.419 c -0.472517,0.661934 7.17e-4,1.581079 0.81399987,1.581 l 57.5375199,-0.05074 c 0.322857,2.08e-4 0.625827,-0.155936 0.813,-0.419 l 5,-7.0000008 c 0.249047,-0.3473 0.249047,-0.8147 0,-1.162 z m -1.328,13.58100079 -55.0795198,0.05074 3.8699999,-5.419 c 0.249047,-0.3473 0.249047,-0.814699 0,-1.162 L 2.9448592,2.0507413 58.024379,2.0000002 l 4.286,6 z"
     id="path2"
     style ="fill:silver; background-color:silver"
     sodipodi:nodetypes="cccccccccccccccccccc" />
</svg>
