<svg width="95" height="42" viewBox="0 0 95 42" fill="none" xmlns="http://www.w3.org/2000/svg">
<path d="M34 17.9924V9H2.22951V24.855H16.0428M9.59658 16.8092H22.9494V32.6641H0M28.2445 24.855H34V40H0" stroke="#1C8EFB" stroke-width="3"/>
<path d="M44.344 16.224H48.024V18H42.104V6.832H44.344V16.224ZM59.6078 13.376C59.6078 13.696 59.5864 13.984 59.5438 14.24H53.0638C53.1171 14.88 53.3411 15.3813 53.7358 15.744C54.1304 16.1067 54.6158 16.288 55.1918 16.288C56.0238 16.288 56.6158 15.9307 56.9678 15.216H59.3838C59.1278 16.0693 58.6371 16.7733 57.9118 17.328C57.1864 17.872 56.2958 18.144 55.2398 18.144C54.3864 18.144 53.6184 17.9573 52.9358 17.584C52.2638 17.2 51.7358 16.6613 51.3518 15.968C50.9784 15.2747 50.7918 14.4747 50.7918 13.568C50.7918 12.6507 50.9784 11.8453 51.3518 11.152C51.7251 10.4587 52.2478 9.92533 52.9198 9.552C53.5918 9.17867 54.3651 8.992 55.2398 8.992C56.0824 8.992 56.8344 9.17333 57.4958 9.536C58.1678 9.89867 58.6851 10.416 59.0478 11.088C59.4211 11.7493 59.6078 12.512 59.6078 13.376ZM57.2878 12.736C57.2771 12.16 57.0691 11.7013 56.6638 11.36C56.2584 11.008 55.7624 10.832 55.1758 10.832C54.6211 10.832 54.1518 11.0027 53.7678 11.344C53.3944 11.6747 53.1651 12.1387 53.0798 12.736H57.2878ZM62.5868 13.536C62.5868 12.64 62.7628 11.8453 63.1148 11.152C63.4774 10.4587 63.9628 9.92533 64.5708 9.552C65.1894 9.17867 65.8774 8.992 66.6348 8.992C67.2961 8.992 67.8721 9.12533 68.3628 9.392C68.8641 9.65867 69.2641 9.99467 69.5628 10.4V9.136H71.8188V18H69.5628V16.704C69.2748 17.12 68.8748 17.4667 68.3628 17.744C67.8614 18.0107 67.2801 18.144 66.6188 18.144C65.8721 18.144 65.1894 17.952 64.5708 17.568C63.9628 17.184 63.4774 16.6453 63.1148 15.952C62.7628 15.248 62.5868 14.4427 62.5868 13.536ZM69.5628 13.568C69.5628 13.024 69.4561 12.56 69.2428 12.176C69.0294 11.7813 68.7414 11.4827 68.3788 11.28C68.0161 11.0667 67.6268 10.96 67.2108 10.96C66.7948 10.96 66.4108 11.0613 66.0588 11.264C65.7068 11.4667 65.4188 11.7653 65.1948 12.16C64.9814 12.544 64.8748 13.0027 64.8748 13.536C64.8748 14.0693 64.9814 14.5387 65.1948 14.944C65.4188 15.3387 65.7068 15.6427 66.0588 15.856C66.4214 16.0693 66.8054 16.176 67.2108 16.176C67.6268 16.176 68.0161 16.0747 68.3788 15.872C68.7414 15.6587 69.0294 15.36 69.2428 14.976C69.4561 14.5813 69.5628 14.112 69.5628 13.568ZM78.1665 10.512C78.4545 10.0427 78.8278 9.67467 79.2865 9.408C79.7558 9.14133 80.2892 9.008 80.8865 9.008V11.36H80.2945C79.5905 11.36 79.0572 11.5253 78.6945 11.856C78.3425 12.1867 78.1665 12.7627 78.1665 13.584V18H75.9265V9.136H78.1665V10.512ZM89.2273 9.008C90.2833 9.008 91.1366 9.344 91.7873 10.016C92.4379 10.6773 92.7633 11.6053 92.7633 12.8V18H90.5233V13.104C90.5233 12.4 90.3473 11.8613 89.9953 11.488C89.6433 11.104 89.1633 10.912 88.5553 10.912C87.9366 10.912 87.4459 11.104 87.0833 11.488C86.7313 11.8613 86.5553 12.4 86.5553 13.104V18H84.3153V9.136H86.5553V10.24C86.8539 9.856 87.2326 9.55733 87.6913 9.344C88.1606 9.12 88.6726 9.008 89.2273 9.008Z" fill="#190F06"/>
<path d="M48.744 29.88V31.368H44.024V34.648H47.704V36.136H44.024V41H42.2V29.88H48.744ZM55.2184 41.144C54.3864 41.144 53.6344 40.9573 52.9624 40.584C52.2904 40.2 51.7624 39.6667 51.3784 38.984C50.9944 38.2907 50.8024 37.4907 50.8024 36.584C50.8024 35.688 50.9997 34.8933 51.3944 34.2C51.789 33.5067 52.3277 32.9733 53.0104 32.6C53.693 32.2267 54.4557 32.04 55.2984 32.04C56.141 32.04 56.9037 32.2267 57.5864 32.6C58.269 32.9733 58.8077 33.5067 59.2024 34.2C59.597 34.8933 59.7944 35.688 59.7944 36.584C59.7944 37.48 59.5917 38.2747 59.1864 38.968C58.781 39.6613 58.2264 40.2 57.5224 40.584C56.829 40.9573 56.061 41.144 55.2184 41.144ZM55.2184 39.56C55.6877 39.56 56.125 39.448 56.5304 39.224C56.9464 39 57.2824 38.664 57.5384 38.216C57.7944 37.768 57.9224 37.224 57.9224 36.584C57.9224 35.944 57.7997 35.4053 57.5544 34.968C57.309 34.52 56.9837 34.184 56.5784 33.96C56.173 33.736 55.7357 33.624 55.2664 33.624C54.797 33.624 54.3597 33.736 53.9544 33.96C53.5597 34.184 53.245 34.52 53.0104 34.968C52.7757 35.4053 52.6584 35.944 52.6584 36.584C52.6584 37.5333 52.8984 38.2693 53.3784 38.792C53.869 39.304 54.4824 39.56 55.2184 39.56ZM64.3815 33.464C64.6482 33.016 65.0002 32.6693 65.4375 32.424C65.8855 32.168 66.4135 32.04 67.0215 32.04V33.928H66.5575C65.8428 33.928 65.2988 34.1093 64.9255 34.472C64.5628 34.8347 64.3815 35.464 64.3815 36.36V41H62.5575V32.184H64.3815V33.464Z" fill="#190F06"/>
<path d="M80.904 38.728H76.248L75.448 41H73.544L77.528 29.864H79.64L83.624 41H81.704L80.904 38.728ZM80.392 37.24L78.584 32.072L76.76 37.24H80.392ZM88.1403 29.16V41H86.3163V29.16H88.1403ZM93.319 29.16V41H91.495V29.16H93.319Z" fill="#1C8EFB"/>
</svg>
